# AST/ASF file generated using VICON BodyLanguage
# -----------------------------------------------
:version 1.10
:name VICON
:units
  mass 1.0
  length 0.45
  angle deg
:documentation
   .ast/.asf automatically generated from VICON data using
   VICON BodyBuilder and BodyLanguage model FoxedUp or BRILLIANT.MOD
:root
   order TX TY TZ RX RY RZ
   axis XYZ
   position 0 0 0  
   orientation 0 0 0 
:bonedata
  begin
     id 1 
     name lhipjoint
     direction 0.645893 -0.654526 0.392961 
     length 2.38111 
     axis 0 0 0  XYZ
  end
  begin
     id 2 
     name lfemur
     direction 0.34202 -0.939693 0  
     length 6.6822  
     axis 0 0 20  XYZ
    dof rx ry rz
    limits (-160.0 20.0)
           (-70.0 70.0)
           (-60.0 70.0)
  end
  begin
     id 3 
     name ltibia
     direction 0.34202 -0.939693 0   
     length 6.93904   
     axis 0 0 20   XYZ
    dof rx
    limits (-10.0 170.0)
  end
  begin
     id 4 
     name lfoot
     direction 0.0694967 -0.190941 0.979138   
     length 2.13616   
     axis -90 7.62852e-016 20   XYZ
    dof rx rz
    limits (-45.0 90.0)
           (-70.0 20.0)
  end
  begin
     id 5 
     name ltoes
     direction 1.535e-011 -4.2202e-011 1   
     length 1.07536   
     axis -90 7.62852e-016 20   XYZ
    dof rx
    limits (-90.0 20.0)
  end
  begin
     id 6 
     name rhipjoint
     direction -0.700219 -0.612087 0.367481   
     length 2.54621  
     axis 0 0 0  XYZ 
  end
  begin
     id 7 
     name rfemur
     direction -0.34202 -0.939693 0   
     length 6.55353   
     axis 0 0 -20   XYZ
    dof rx ry rz
    limits (-160.0 20.0)
           (-70.0 70.0)
           (-70.0 60.0)
  end
  begin
     id 8 
     name rtibia
     direction -0.34202 -0.939693 0   
     length 6.8736   
     axis 0 0 -20   XYZ
    dof rx
    limits (-10.0 170.0)
 end
 begin
     id 9 
     name rfoot
     direction -0.0679995 -0.186827 0.980037   
     length 2.1218  
     axis -90 -7.62852e-016 -20   XYZ
    dof rx rz
    limits (-45.0 90.0)
           (-20.0 70.0)
  end
  begin
     id 10 
     name rtoes
     direction -1.53589e-011 -4.21772e-011 1   
     length 1.06864   
     axis -90 -7.62852e-016 -20   XYZ
    dof rx
    limits (-90.0 20.0)
  end
  begin
     id 11 
     name lowerback
     direction -0.0416607 0.996347 -0.0745409   
     length 2.12205   
     axis 0 0 0   XYZ
    dof rx ry rz
    limits (-20.0 45.0)
           (-30.0 30.0)
           (-30.0 30.0)
  end
  begin
     id 12 
     name upperback
     direction -0.000153993 0.999276 -0.0380568   
     length 2.12759   
     axis 0 0 0   XYZ
    dof rx ry rz
    limits (-20.0 45.0)
           (-30.0 30.0)
           (-30.0 30.0)
  end
  begin
     id 13 
     name thorax
     direction 0.0187671 0.999821 -0.00241421   
     length 2.13704   
     axis 0 0 0   XYZ
    dof rx ry rz
    limits (-20.0 45.0)
           (-30.0 30.0)
           (-30.0 30.0)
  end
  begin
     id 14 
     name lowerneck
     direction 0.0268157 0.964865 0.261374   
     length 1.65253   
     axis 0 0 0   XYZ
    dof rx ry rz
    limits (-20.0 45.0)
           (-30.0 30.0)
           (-30.0 30.0)
  end
  begin
     id 15 
     name upperneck
     direction 0.00263774 0.939908 -0.341418   
     length 1.72375   
     axis 0 0 0   XYZ
    dof rx ry rz
    limits (-20.0 45.0)
           (-30.0 30.0)
           (-30.0 30.0)
  end
  begin
     id 16
     name head
     direction -0.00526001 0.989001 -0.147818  
     length 1.74878  
     axis 0 0 0   XYZ
    dof rx ry rz
    limits (-20.0 45.0)
           (-30.0 30.0)
           (-30.0 30.0)
  end
  begin
     id 17 
     name lclavicle
     direction 0.881214 0.461162 -0.103884  
     length 3.25108  
     axis 0 0 0   XYZ
    dof ry rz
    limits (-20.0 10.0)
           (0.0 20.0)
  end
  begin
     id 18 
     name lhumerus
     direction 1 -4.4899e-011 3.38092e-027   
     length 4.87408   
     axis 180 -30 -90   XYZ
    dof rx ry rz
    limits (-60.0 90.0)
           (-90.0 90.0)
           (-90.0 90.0)
  end
  begin
     id 19
     name lradius
     direction 1 -4.48931e-011 9.96288e-027   
     length 2.76729   
     axis 180 -30 -90   XYZ
    dof rx
    limits (-10.0 170.0)
  end
  begin
     id 20
     name lwrist
     direction 1 -4.4896e-011 1.50617e-026   
     length 1.38364   
     axis -9.31234e-015 90 90   XYZ
    dof ry
    limits (-180.0 0.0)
 end
  begin
     id 21 
     name lhand
     direction 1 -4.49038e-011 3.01286e-026   
     length 0.98922   
     axis -1.92217e-014 90 90   XYZ
    dof rx rz
    limits (-90.0 90.0)
           (-45.0 45.0)
  end
  begin
     id 22 
     name lfingers
     direction 1 -4.49051e-011 6.02588e-026   
     length 0.797535   
     axis -3.84436e-014 90 90   XYZ
    dof rx
    limits (0.0 90.0)
  end
  begin
     id 23
     name lthumb
     direction 0.707107 -6.34901e-011 0.707107   
     length 1.14511   
     axis -90 45 2.19363e-014   XYZ
    dof rx rz
    limits (-45.0 45.0)
           (-45.0 45.0)
  end
  begin
     id 24 
     name rclavicle
     direction -0.893894 0.441652 -0.0767889   
     length 3.29361  
     axis 0 0 0   XYZ 
    dof ry rz
    limits (-10.0 20.0)
           (-20.0 0.0)
  end
  begin
     id 25 
     name rhumerus
     direction -1 -4.48945e-011 8.0491e-028  
     length 4.71404   
     axis 180 30 90   XYZ
    dof rx ry rz
    limits (-90.0 60.0)
           (-90.0 90.0)
           (-90.0 90.0)
  end
  begin
     id 26 
     name rradius
     direction -1 -4.48986e-011 9.27795e-027   
     length 2.83468   
     axis 180 30 90   XYZ
    dof rx
    limits (-10.0 170.0)
  end
  begin
     id 27 
     name rwrist
     direction -1 -4.49029e-011 1.5064e-026   
     length 1.41734   
     axis -9.31234e-015 -90 -90   XYZ
    dof ry
    limits (-180.0 0.0)
  end
  begin
     id 28
     name rhand
     direction -1 -4.48857e-011 3.01165e-026   
     length 0.868195   
     axis -1.92217e-014 -90 -90   XYZ
    dof rx rz
    limits (-90.0 90.0)
           (-45.0 45.0)
  end
  begin
     id 29
     name rfingers
     direction -1 -4.49048e-011 6.02585e-026   
     length 0.699961   
     axis -3.84436e-014 -90 -90   XYZ
    dof rx
    limits (0.0 90.0)
  end
  begin
     id 30
     name rthumb
     direction -0.707107 -6.34854e-011 0.707107   
     length 1.00501   
     axis -90 -45 -2.19363e-014   XYZ
    dof rx rz
    limits (-45.0 45.0)
           (-45.0 45.0)
  end
:hierarchy
  begin
    root lhipjoint rhipjoint lowerback
    lhipjoint lfemur
    lfemur ltibia
    ltibia lfoot
    lfoot ltoes
    rhipjoint rfemur
    rfemur rtibia
    rtibia rfoot
    rfoot rtoes
    lowerback upperback
    upperback thorax
    thorax lowerneck lclavicle rclavicle
    lowerneck upperneck
    upperneck head
    lclavicle lhumerus
    lhumerus lradius
    lradius lwrist
    lwrist lhand lthumb
    lhand lfingers
    rclavicle rhumerus
    rhumerus rradius
    rradius rwrist
    rwrist rhand rthumb
    rhand rfingers
  end

#!OML:ASF H:\ManfredObstacles\Project 1\Capture day 2\Session 1\male.ASF
:FULLY-SPECIFIED
:DEGREES
49
root 0.977195 16.1522 24.7044 -178.245 -1.7902 -185.512
lowerback 0.324442 -3.00692 -8.44539
upperback 2.75767 -4.05084 -1.1761
thorax 3.17931 -2.28696 3.37432
lowerneck -26.7878 -1.90555 4.94936
upperneck 48.0436 2.99152 -2.44666
head 29.2184 3.71875 -0.592447
rclavicle -1.31943e-014 3.35946e-014
rhumerus -55.721 -11.0361 -65.8758
rradius 38.3083
rwrist 18.2447
rhand -6.36268 -6.92986
rfingers 7.12502
rthumb 19.4837 -35.9737
lclavicle -1.31943e-014 3.35946e-014
lhumerus -28.5547 -28.2967 91.6314
lradius 85.0618
lwrist -24.6686
lhand -14.2011 1.16894
lfingers 7.12502
lthumb 11.9351 30.8087
rfemur -41.4809 2.32684 13.6147
rtibia 45.0264
rfoot 10.472 -15.1757
rtoes -19.3731
lfemur 1.4376 -3.89656 -29.9166
ltibia 22.1995
lfoot 6.42813 12.141
ltoes -11.9692
50
root 0.9906 16.1663 24.5522 -178.184 -2.09029 -185.582
lowerback 0.269478 -3.10149 -8.55227
upperback 2.85059 -4.16907 -1.13004
thorax 3.33451 -2.35864 3.46771
lowerneck -26.8786 -1.91787 4.8649
upperneck 48.0402 2.98984 -2.41316
head 29.2662 3.6977 -0.554692
rclavicle 1.96797e-014 2.00773e-014
rhumerus -56.2177 -11.5085 -64.835
rradius 37.4583
rwrist 18.7801
rhand -6.16264 -6.59126
rfingers 7.12502
rthumb 19.676 -35.6155
lclavicle 1.96797e-014 2.00773e-014
lhumerus -27.6226 -28.9575 91.3888
lradius 84.678
lwrist -24.6152
lhand -14.034 1.20028
lfingers 7.12502
lthumb 12.0963 30.8306
rfemur -41.2975 2.47623 13.2833
rtibia 42.5038
rfoot 11.6782 -14.6916
rtoes -19.2328
lfemur 2.50917 -3.9657 -29.8827
ltibia 21.0781
lfoot 6.65859 11.4777
ltoes -12.205
51
root 1.00429 16.176 24.3989 -178.137 -2.43086 -185.644
lowerback 0.212398 -3.1981 -8.63755
upperback 2.96504 -4.28996 -1.08384
thorax 3.51289 -2.4332 3.54754
lowerneck -27.0144 -1.92192 4.80068
upperneck 48.0209 2.97766 -2.39162
head 29.318 3.67246 -0.533774
rclavicle 1.56791e-014 -5.1684e-015
rhumerus -56.6795 -11.9264 -63.8888
rradius 36.6794
rwrist 19.3149
rhand -5.9969 -6.32494
rfingers 7.12502
rthumb 19.8353 -35.3328
lclavicle 1.56791e-014 -5.1684e-015
lhumerus -26.6896 -29.5744 91.1401
lradius 84.2352
lwrist -24.5963
lhand -13.8584 1.25115
lfingers 7.12502
lthumb 12.2657 30.8714
rfemur -41.02 2.61927 12.9482
rtibia 40.0457
rfoot 12.901 -14.3326
rtoes -19.0863
lfemur 3.59954 -4.07875 -29.8385
ltibia 19.9723
lfoot 6.88292 10.8205
ltoes -12.4541
52
root 1.01832 16.1818 24.2447 -178.089 -2.79608 -185.681
lowerback 0.130329 -3.29825 -8.68396
upperback 3.08793 -4.41295 -1.03462
thorax 3.71232 -2.50883 3.60636
lowerneck -27.1636 -1.93017 4.72283
upperneck 48.0039 2.95859 -2.35505
head 29.3799 3.6437 -0.501811
rclavicle 3.74958e-014 8.94531e-015
rhumerus -57.1008 -12.2925 -63.0384
rradius 35.9528
rwrist 19.8819
rhand -5.85262 -6.13021
rfingers 7.12502
rthumb 19.974 -35.1237
lclavicle 3.74958e-014 8.94531e-015
lhumerus -25.7885 -30.1315 90.8966
lradius 83.7406
lwrist -24.6397
lhand -13.7172 1.34957
lfingers 7.12502
lthumb 12.4017 30.9617
rfemur -40.6777 2.78451 12.6236
rtibia 37.6752
rfoot 14.1148 -14.1379
rtoes -18.943
lfemur 4.68017 -4.21836 -29.7637
ltibia 18.9002
lfoot 7.07862 10.1824
ltoes -12.7332
53
root 1.03274 16.1839 24.0888 -178.048 -3.18948 -185.702
lowerback 0.053234 -3.41161 -8.71145
upperback 3.18441 -4.55421 -0.980948
thorax 3.88304 -2.59057 3.65927
lowerneck -27.2385 -1.93949 4.65028
upperneck 47.9853 2.95082 -2.32887
head 29.3919 3.62105 -0.474432
rclavicle -1.11568e-014 -1.70955e-014
rhumerus -57.5371 -12.5305 -62.2981
rradius 35.3055
rwrist 20.454
rhand -5.71248 -6.0325
rfingers 7.12502
rthumb 20.1087 -35.0118
lclavicle -1.11568e-014 -1.70955e-014
lhumerus -25.0095 -30.5863 90.7047
lradius 83.2055
lwrist -24.7169
lhand -13.5573 1.42982
lfingers 7.12502
lthumb 12.556 31.0325
rfemur -40.2596 2.97536 12.2959
rtibia 35.4196
rfoot 15.2537 -14.1563
rtoes -18.7886
lfemur 5.74627 -4.38619 -29.6691
ltibia 17.8849
lfoot 7.24287 9.57742
ltoes -13.0521
54
root 1.04753 16.1826 23.9308 -177.994 -3.60929 -185.712
lowerback -0.0388786 -3.53577 -8.7197
upperback 3.26055 -4.7083 -0.926865
thorax 4.04152 -2.67641 3.7005
lowerneck -27.2744 -1.93547 4.62095
upperneck 47.9624 2.95734 -2.32504
head 29.3763 3.6113 -0.466341
rclavicle -4.49005e-014 -1.3418e-014
rhumerus -57.9507 -12.7158 -61.6376
rradius 34.7098
rwrist 21.0206
rhand -5.54947 -6.02817
rfingers 7.12502
rthumb 20.2654 -34.991
lclavicle -4.49005e-014 -1.3418e-014
lhumerus -24.3184 -30.9652 90.5501
lradius 82.6311
lwrist -24.8488
lhand -13.3705 1.49828
lfingers 7.12502
lthumb 12.736 31.0899
rfemur -39.7962 3.19203 11.961
rtibia 33.3052
rfoot 16.3082 -14.3837
rtoes -18.6691
lfemur 6.76645 -4.56769 -29.5565
ltibia 16.9486
lfoot 7.37469 9.00247
ltoes -13.3789
55
root 1.06303 16.1782 23.7703 -177.935 -4.052 -185.71
lowerback -0.137718 -3.67493 -8.7221
upperback 3.29942 -4.8813 -0.86583
thorax 4.16775 -2.76812 3.74516
lowerneck -27.228 -1.94574 4.58741
upperneck 47.9583 2.97477 -2.32959
head 29.3396 3.61014 -0.457415
rclavicle 2.58669e-014 -2.22639e-014
rhumerus -58.3711 -12.8263 -61.0326
rradius 34.1581
rwrist 21.5879
rhand -5.37767 -6.03986
rfingers 7.12502
rthumb 20.4305 -34.985
lclavicle 2.58669e-014 -2.22639e-014
lhumerus -23.7643 -31.26 90.4664
lradius 82.0316
lwrist -25.0119
lhand -13.1777 1.56843
lfingers 7.12502
lthumb 12.9219 31.1483
rfemur -39.2927 3.43001 11.6317
rtibia 31.3645
rfoot 17.265 -14.806
rtoes -18.5562
lfemur 7.74091 -4.7483 -29.422
ltibia 16.0992
lfoot 7.4733 8.45916
ltoes -13.6889
